<?xml version="1.0" encoding="utf-8" standalone="no"?>
<!DOCTYPE svg PUBLIC "-//W3C//DTD SVG 1.1//EN"
  "http://www.w3.org/Graphics/SVG/1.1/DTD/svg11.dtd">
<svg height="736.533333pt" version="1.1" viewBox="0 0 792 736.533333" width="792pt" xmlns="http://www.w3.org/2000/svg" xmlns:xlink="http://www.w3.org/1999/xlink">
 <metadata>
  <rdf:RDF xmlns:cc="http://creativecommons.org/ns#" xmlns:dc="http://purl.org/dc/elements/1.1/" xmlns:rdf="http://www.w3.org/1999/02/22-rdf-syntax-ns#">
   <cc:Work>
    <dc:type rdf:resource="http://purl.org/dc/dcmitype/StillImage"/>
    <dc:date>2021-06-15T00:52:15.727689</dc:date>
    <dc:format>image/svg+xml</dc:format>
    <dc:creator>
     <cc:Agent>
      <dc:title>Matplotlib v3.4.2, https://matplotlib.org/</dc:title>
     </cc:Agent>
    </dc:creator>
   </cc:Work>
  </rdf:RDF>
 </metadata>
 <defs>
  <style type="text/css">*{stroke-linecap:butt;stroke-linejoin:round;}</style>
 </defs>
 <g id="figure_1">
  <g id="patch_1">
   <path d="M 0 736.533333 
L 792 736.533333 
L 792 0 
L 0 0 
z
" style="fill:none;"/>
  </g>
  <g id="axes_1">
   <g id="patch_2">
    <path d="M 99 655.514667 
L 712.8 655.514667 
L 712.8 88.384 
L 99 88.384 
z
" style="fill:none;"/>
   </g>
   <g id="matplotlib.axis_1"/>
   <g id="matplotlib.axis_2"/>
   <g id="line2d_1">
    <path clip-path="url(#p3f05b7d26d)" d="M 702.29689 439.709963 
L 700.883009 439.30868 
L 697.006016 437.961338 
L 691.203569 435.773749 
L 683.673405 433.037236 
L 674.318181 429.93682 
L 663.103424 426.412571 
L 650.146909 422.399425 
L 635.594184 417.897089 
L 619.616994 412.93625 
L 602.367697 407.556601 
L 584.02705 401.81226 
L 564.762397 395.767026 
L 544.744854 389.501933 
L 524.16199 383.111085 
L 503.176016 376.696911 
L 481.968633 370.397666 
L 460.624616 364.396624 
L 439.179281 358.793023 
L 417.720754 353.608065 
L 396.326891 348.940212 
L 375.028397 344.832161 
L 353.964111 341.28846 
L 333.182657 338.353837 
L 312.735482 336.006119 
L 292.750217 334.242982 
L 273.317185 333.069069 
L 254.531846 332.450397 
L 236.50391 332.382605 
L 219.326636 332.848265 
L 203.110467 333.837499 
L 187.929278 335.341883 
L 173.847929 337.329561 
L 160.95968 339.783104 
L 149.297328 342.683826 
L 138.907709 345.953013 
L 129.847514 349.574688 
L 122.132247 353.477787 
L 115.841545 357.564908 
L 110.977606 361.819496 
L 107.47148 366.12169 
L 105.382365 370.254134 
L 105.017647 371.949333 
" style="fill:none;stroke:#000000;stroke-linecap:square;stroke-width:3;"/>
   </g>
   <g id="line2d_2">
    <path clip-path="url(#p3f05b7d26d)" d="M 105.017647 371.949333 
L 104.922862 373.848814 
L 106.638385 377.135665 
L 110.620317 380.5676 
L 116.483468 384.123328 
L 124.101569 387.749309 
L 133.452823 391.381452 
L 144.50066 395.021208 
L 157.138303 398.650863 
L 171.297746 402.234692 
L 186.887196 405.779086 
L 203.789397 409.253938 
L 221.891601 412.640855 
L 241.065338 415.902854 
L 261.212006 419.006341 
L 282.200936 421.930891 
L 303.903659 424.639521 
L 326.214866 427.103479 
L 349.006929 429.325091 
L 372.158818 431.257015 
L 395.584714 432.906321 
L 419.114447 434.27611 
L 442.683047 435.35341 
L 466.221255 436.203187 
L 489.535951 436.909969 
L 512.460004 437.499608 
L 534.818109 438.013837 
L 556.43192 438.471636 
L 577.122361 438.897505 
L 596.719259 439.294543 
L 615.052442 439.665854 
L 631.958446 440.009698 
L 647.281244 440.313975 
L 660.886395 440.541026 
L 672.639459 440.653192 
L 682.462578 440.55201 
L 690.463889 440.199331 
L 696.679759 439.823355 
L 700.816688 439.670878 
L 702.29689 439.709963 
" style="fill:none;stroke:#000000;stroke-linecap:square;stroke-width:3;"/>
   </g>
  </g>
 </g>
 <defs>
  <clipPath id="p3f05b7d26d">
   <rect height="567.130667" width="613.8" x="99" y="88.384"/>
  </clipPath>
 </defs>
</svg>
